<?xml version="1.0" encoding="UTF-8" standalone="no"?>
<!-- Created with Inkscape (http://www.inkscape.org/) -->

<svg
   xmlns:osb="http://www.openswatchbook.org/uri/2009/osb"
   xmlns:dc="http://purl.org/dc/elements/1.1/"
   xmlns:cc="http://creativecommons.org/ns#"
   xmlns:rdf="http://www.w3.org/1999/02/22-rdf-syntax-ns#"
   xmlns:svg="http://www.w3.org/2000/svg"
   xmlns="http://www.w3.org/2000/svg"
   xmlns:xlink="http://www.w3.org/1999/xlink"
   xmlns:sodipodi="http://sodipodi.sourceforge.net/DTD/sodipodi-0.dtd"
   xmlns:inkscape="http://www.inkscape.org/namespaces/inkscape"
   width="708.66248"
   height="1062.9875"
   id="svg2"
   version="1.1"
   inkscape:version="0.48.4 r9939"
   sodipodi:docname="logo.svg">
  <defs
     id="defs4">
    <linearGradient
       id="linearGradient3873"
       osb:paint="solid">
      <stop
         style="stop-color:#ffffff;stop-opacity:1;"
         offset="0"
         id="stop3875" />
    </linearGradient>
    <linearGradient
       id="linearGradient4349"
       osb:paint="solid">
      <stop
         style="stop-color:#ffffff;stop-opacity:1;"
         offset="0"
         id="stop4351" />
    </linearGradient>
    <linearGradient
       inkscape:collect="always"
       xlink:href="#linearGradient4349"
       id="linearGradient4353"
       x1="161.80121"
       y1="453.85938"
       x2="774.58771"
       y2="453.85938"
       gradientUnits="userSpaceOnUse" />
    <linearGradient
       inkscape:collect="always"
       xlink:href="#linearGradient4349"
       id="linearGradient4370"
       gradientUnits="userSpaceOnUse"
       x1="161.80121"
       y1="453.85938"
       x2="774.58771"
       y2="453.85938" />
    <linearGradient
       inkscape:collect="always"
       xlink:href="#linearGradient4349"
       id="linearGradient4372"
       gradientUnits="userSpaceOnUse"
       x1="161.80121"
       y1="453.85938"
       x2="774.58771"
       y2="453.85938" />
    <linearGradient
       inkscape:collect="always"
       xlink:href="#linearGradient4349"
       id="linearGradient4374"
       gradientUnits="userSpaceOnUse"
       x1="161.80121"
       y1="453.85938"
       x2="774.58771"
       y2="453.85938" />
    <linearGradient
       inkscape:collect="always"
       xlink:href="#linearGradient4349"
       id="linearGradient4376"
       gradientUnits="userSpaceOnUse"
       x1="161.80121"
       y1="453.85938"
       x2="774.58771"
       y2="453.85938" />
    <linearGradient
       inkscape:collect="always"
       xlink:href="#linearGradient4349"
       id="linearGradient4378"
       gradientUnits="userSpaceOnUse"
       x1="161.80121"
       y1="453.85938"
       x2="774.58771"
       y2="453.85938" />
    <linearGradient
       inkscape:collect="always"
       xlink:href="#linearGradient4349"
       id="linearGradient4380"
       gradientUnits="userSpaceOnUse"
       x1="161.80121"
       y1="453.85938"
       x2="774.58771"
       y2="453.85938" />
    <linearGradient
       inkscape:collect="always"
       xlink:href="#linearGradient4349"
       id="linearGradient4382"
       gradientUnits="userSpaceOnUse"
       x1="161.80121"
       y1="453.85938"
       x2="774.58771"
       y2="453.85938" />
    <linearGradient
       inkscape:collect="always"
       xlink:href="#linearGradient4349"
       id="linearGradient4384"
       gradientUnits="userSpaceOnUse"
       x1="161.80121"
       y1="453.85938"
       x2="774.58771"
       y2="453.85938" />
    <linearGradient
       inkscape:collect="always"
       xlink:href="#linearGradient4349"
       id="linearGradient4386"
       gradientUnits="userSpaceOnUse"
       x1="161.80121"
       y1="453.85938"
       x2="774.58771"
       y2="453.85938" />
    <linearGradient
       inkscape:collect="always"
       xlink:href="#linearGradient4349"
       id="linearGradient4388"
       gradientUnits="userSpaceOnUse"
       x1="161.80121"
       y1="453.85938"
       x2="774.58771"
       y2="453.85938" />
    <linearGradient
       inkscape:collect="always"
       xlink:href="#linearGradient4349"
       id="linearGradient4390"
       gradientUnits="userSpaceOnUse"
       x1="161.80121"
       y1="453.85938"
       x2="774.58771"
       y2="453.85938" />
    <linearGradient
       inkscape:collect="always"
       xlink:href="#linearGradient4349"
       id="linearGradient4392"
       gradientUnits="userSpaceOnUse"
       x1="161.80121"
       y1="453.85938"
       x2="774.58771"
       y2="453.85938" />
  </defs>
  <sodipodi:namedview
     id="base"
     pagecolor="#ffffff"
     bordercolor="#666666"
     borderopacity="1.0"
     inkscape:pageopacity="0.0"
     inkscape:pageshadow="2"
     inkscape:zoom="0.60167719"
     inkscape:cx="155.71921"
     inkscape:cy="937.66586"
     inkscape:document-units="px"
     inkscape:current-layer="g3781"
     showgrid="false"
     inkscape:window-width="1366"
     inkscape:window-height="705"
     inkscape:window-x="-8"
     inkscape:window-y="-8"
     inkscape:window-maximized="1"
     units="pt"
     showguides="true"
     inkscape:guide-bbox="true"
     height="1052.36px" />
  <metadata
     id="metadata7">
    <rdf:RDF>
      <cc:Work
         rdf:about="">
        <dc:format>image/svg+xml</dc:format>
        <dc:type
           rdf:resource="http://purl.org/dc/dcmitype/StillImage" />
        <dc:title></dc:title>
      </cc:Work>
    </rdf:RDF>
  </metadata>
  <g
     inkscape:label="Layer 1"
     inkscape:groupmode="layer"
     id="layer1"
     transform="translate(0,10.62693)">
    <g
       id="g3781"
       style="fill:#ff0000">
      <g
         id="g3287"
         inkscape:export-xdpi="89.876961"
         inkscape:export-ydpi="89.876961"
         transform="translate(-2.2888184e-5,39.888499)">
        <path
           sodipodi:nodetypes="cc"
           inkscape:connector-curvature="0"
           id="path3954"
           d="m 354.33069,182.60345 0,-166.267817"
           style="fill:none;stroke:#ff0000;stroke-width:0.5;stroke-linecap:butt;stroke-linejoin:miter;stroke-miterlimit:4;stroke-opacity:1;stroke-dasharray:none" />
        <rect
           y="7.6416297"
           x="40.748032"
           height="184.25197"
           width="290.55118"
           id="rect3041"
           style="fill:#008080;fill-opacity:1;stroke:none" />
        <rect
           y="7.6416297"
           x="40.748032"
           height="63.610043"
           width="290.55118"
           id="rect3880"
           style="fill:#ffffff;fill-opacity:1;stroke:none" />
        <text
           sodipodi:linespacing="125%"
           id="text3882"
           y="82.891167"
           x="52.841263"
           style="font-size:20.68104172px;font-style:normal;font-weight:normal;line-height:125%;letter-spacing:0px;word-spacing:0px;fill:#ffffff;fill-opacity:1;stroke:none;font-family:Sans"
           xml:space="preserve"><tspan
             style="font-style:normal;font-variant:normal;font-weight:bold;font-stretch:normal;fill:#ffffff;font-family:Eras Bold ITC;-inkscape-font-specification:Eras Bold ITC Bold"
             y="82.891167"
             x="52.841263"
             id="tspan3884"
             sodipodi:role="line">MEMBER CARD</tspan></text>
        <g
           style="fill:#ffffff"
           id="g3910"
           transform="matrix(0.54204055,0,0,0.54204055,673.3259,70.137337)">
          <path
             style="fill:#ffffff;stroke:none"
             d="m -890.25994,134.65318 61.66575,0.94871 10.91009,-53.601767 15.17927,0.94871 -11.8588,53.127407 18.49972,0 23.24325,-113.844447 -16.60232,0.47435 -10.91009,48.38389 -15.65362,0.47436 11.38445,-49.3326 -18.49973,0.47435 -22.76889,105.306127 -41.74296,-0.94871 z"
             id="path3912"
             inkscape:connector-curvature="0" />
          <path
             style="fill:#ffffff;stroke:none"
             d="m -767.65748,28.248733 -22.98856,107.353157 18.49973,0 c 0,0 17.9019,-91.069067 19.44843,-96.293437 1.53517,-5.18599 8.00876,-3.57986 6.9821,1.37159 -0.87209,4.20597 -19.31525,94.447497 -19.31525,94.447497 l 15.65361,0 c 0,0 19.89939,-90.134737 20.45549,-93.082807 0.9487,-5.02942 8.2649,-5.41616 7.23173,1.62765 -1.12064,7.64014 -17.72583,91.929507 -17.72583,91.929507 l 18.02537,0.47435 21.34584,-105.306117 43.64037,0 3.32047,-8.06399 c 0,0 -60.74222,-0.33945 -68.92672,-0.42107 -10.72686,-0.10697 -14.08487,6.58761 -14.08487,6.58761 0,0 1.48875,-6.5583 -15.00629,-6.29975 -14.35473,0.225 -15.46397,-0.19187 -15.46397,-0.19187 z"
             id="path3914"
             inkscape:connector-curvature="0"
             sodipodi:nodetypes="cccssccsscccccscscc" />
          <path
             style="fill:#ffffff;stroke:none"
             d="m -743.93615,-33.737587 c -21.85055,0 -46.01819,20.68352 -64.53125,51.875 l 4.34375,0 c 15.27691,-24.8965699 34.20747,-41 51.40625,-41 17.19732,0 28.81889,16.1070201 32.78125,41 l 15.5625,0 c -3.48809,-31.19321 -17.71123,-51.875 -39.5625,-51.875 z M -837.9049,138.76241 c 3.27358,31.8006 17.5477,52.96876 39.65625,52.96876 22.10843,0 46.59318,-21.16845 65.1875,-52.96876 l -13.0625,0 c -15.58888,26.75366 -35.39752,44.28126 -53.34375,44.28126 -17.94729,0 -29.80545,-17.52492 -33.25,-44.28126 l -5.1875,0 z"
             id="path3916"
             inkscape:connector-curvature="0" />
        </g>
        <rect
           style="fill:#008080;fill-opacity:1;stroke:none"
           id="rect3958"
           width="290.55118"
           height="184.25197"
           x="377.36221"
           y="7.6416297" />
        <rect
           style="fill:#ffffff;fill-opacity:1;stroke:none"
           id="rect3960"
           width="290.55118"
           height="63.610043"
           x="377.36221"
           y="7.6416297" />
        <g
           transform="translate(-8.0375755,10.773648)"
           id="g4188">
          <g
             id="g3962"
             style="stroke:#ffffff;stroke-width:5;stroke-linecap:square;stroke-miterlimit:0;stroke-dasharray:none"
             transform="matrix(0.17891126,0,0,0.17891126,524.46849,-45.22349)">
            <path
               style="fill:#ff0000;stroke:#ffffff;stroke-width:5;stroke-linecap:square;stroke-miterlimit:0;stroke-dasharray:none"
               d="m 163.30121,509.51577 61.66575,0.94871 10.91009,-53.60177 15.17927,0.94871 -11.8588,53.12741 18.49972,0 23.24325,-113.84446 -16.60232,0.47435 -10.91009,48.3839 -15.65362,0.47435 11.38445,-49.3326 -18.49973,0.47435 -22.76889,105.30613 -41.74296,-0.94871 z"
               id="path3964"
               inkscape:connector-curvature="0" />
            <path
               style="fill:#ff0000;stroke:#ffffff;stroke-width:5;stroke-linecap:square;stroke-miterlimit:0;stroke-dasharray:none"
               d="m 285.90367,403.11132 -22.98856,107.35316 18.49973,0 c 0,0 17.9019,-91.06907 19.44843,-96.29344 1.53517,-5.18599 8.00876,-3.57986 6.9821,1.37159 -0.87209,4.20597 -19.31525,94.4475 -19.31525,94.4475 l 15.65361,0 c 0,0 19.89939,-90.13474 20.45549,-93.08281 0.9487,-5.02942 8.2649,-5.41616 7.23173,1.62765 -1.12064,7.64014 -17.72583,91.92951 -17.72583,91.92951 l 18.02537,0.47435 21.34584,-105.30612 43.64037,0 3.32047,-8.06399 c 0,0 -60.74222,-0.33945 -68.92672,-0.42107 -10.72686,-0.10697 -14.08487,6.58761 -14.08487,6.58761 0,0 1.48875,-6.5583 -15.00629,-6.29975 -14.35473,0.225 -15.46397,-0.19187 -15.46397,-0.19187 z"
               id="path3966"
               inkscape:connector-curvature="0"
               sodipodi:nodetypes="cccssccsscccccscscc" />
            <path
               style="fill:#ff0000;stroke:#ffffff;stroke-width:5;stroke-linecap:square;stroke-miterlimit:0;stroke-dasharray:none"
               d="m 309.625,341.125 c -21.85055,0 -46.01819,20.68352 -64.53125,51.875 l 4.34375,0 c 15.27691,-24.89658 34.20747,-41 51.40625,-41 17.19732,0 28.81889,16.10702 32.78125,41 l 15.5625,0 c -3.48809,-31.19321 -17.71123,-51.875 -39.5625,-51.875 z m -93.96875,172.5 c 3.27358,31.80059 17.5477,52.96875 39.65625,52.96875 22.10843,0 46.59318,-21.16845 65.1875,-52.96875 l -13.0625,0 c -15.58888,26.75366 -35.39752,44.28125 -53.34375,44.28125 -17.94729,0 -29.80545,-17.52492 -33.25,-44.28125 l -5.1875,0 z"
               id="path3968"
               inkscape:connector-curvature="0" />
            <g
               transform="matrix(0.77092325,0,-0.25330068,1.297146,0,0)"
               style="font-size:142.03018188px;font-style:normal;font-weight:normal;line-height:125%;letter-spacing:0px;word-spacing:0px;fill:#008080;fill-opacity:1;stroke:#ffffff;stroke-width:5;stroke-miterlimit:0;stroke-dasharray:none;font-family:Sans"
               id="g3970">
              <path
                 d="m 647.43096,299.0753 23.65725,0 0,33.65675 15.23981,0 0,-33.65675 23.65291,0 0,93.54973 -23.65291,0 0,-37.73977 -15.23981,0 0,37.73977 -23.65725,0 z"
                 style="font-variant:normal;font-weight:bold;font-stretch:normal;fill:#008080;stroke:#ffffff;stroke-width:5;stroke-miterlimit:0;stroke-dasharray:none;font-family:Tw Cen MT Condensed Extra Bold;-inkscape-font-specification:Tw Cen MT Condensed Extra Bold"
                 id="path3972"
                 inkscape:connector-curvature="0" />
              <path
                 d="m 755.52265,370.74489 19.54389,0 c -3.36356,15.90154 -11.80555,23.8523 -25.326,23.8523 -8.4637,0 -15.12858,-3.17207 -19.99467,-9.51621 -4.86611,-6.34413 -7.29916,-14.96744 -7.29916,-25.86997 0,-10.17717 2.43377,-18.40388 7.30133,-24.68017 4.86753,-6.27617 11.39588,-9.41429 19.58506,-9.41436 4.94698,7e-5 9.68161,1.52867 14.20389,4.58582 4.52219,3.05727 7.79684,7.05793 9.82396,12.002 2.027,4.94417 3.1619,13.10153 3.40468,24.47212 l -32.97625,0 c 0.23115,7.44077 2.30589,11.16114 6.22423,11.16112 1.25695,2e-5 2.4034,-0.48255 3.43936,-1.44769 1.03589,-0.96512 1.72578,-2.6801 2.06968,-5.14496 z m -11.46453,-18.08752 11.29549,0 c -0.13007,-3.24788 -0.64875,-5.751 -1.55606,-7.50938 -0.90737,-1.75828 -2.21347,-2.63744 -3.91831,-2.63749 -2.0112,5e-5 -3.48418,0.84093 -4.41894,2.52263 -0.93481,1.6818 -1.40221,4.22321 -1.40218,7.62424 z"
                 style="font-variant:normal;font-weight:bold;font-stretch:normal;fill:#008080;stroke:#ffffff;stroke-width:5;stroke-miterlimit:0;stroke-dasharray:none;font-family:Tw Cen MT Condensed Extra Bold;-inkscape-font-specification:Tw Cen MT Condensed Extra Bold"
                 id="path3974"
                 inkscape:connector-curvature="0" />
              <path
                 d="m 780.54524,327.29236 22.19222,0 5.26631,17.25098 c 1.72796,5.72725 3.1482,10.99356 4.26074,15.79895 l -2.16288,0 c 0.91598,-4.57711 1.70917,-7.9854 2.3796,-10.22489 l 6.90039,-22.82504 22.48696,0 -27.02076,91.10512 -22.4046,0 8.023,-27.97867 z"
                 style="font-variant:normal;font-weight:bold;font-stretch:normal;fill:#008080;stroke:#ffffff;stroke-width:5;stroke-miterlimit:0;stroke-dasharray:none;font-family:Tw Cen MT Condensed Extra Bold;-inkscape-font-specification:Tw Cen MT Condensed Extra Bold"
                 id="path3976"
                 inkscape:connector-curvature="0" />
              <path
                 d="m 858.05329,299.0753 28.69384,0 c 3.89514,20.67525 6.4091,37.51589 7.54188,50.52197 l 0.68918,-12.90356 c 0.90439,-5.18968 1.88686,-10.55424 2.9474,-16.09369 l 4.23472,-21.52472 29.23131,0 10.49363,93.54973 -23.3365,0 -4.70285,-62.41994 -10.85338,62.41994 -16.46211,0 -11.42119,-62.55864 -4.54681,62.55864 -22.43494,0 z"
                 style="font-variant:normal;font-weight:bold;font-stretch:normal;fill:#008080;stroke:#ffffff;stroke-width:5;stroke-miterlimit:0;stroke-dasharray:none;font-family:Tw Cen MT Condensed Extra Bold;-inkscape-font-specification:Tw Cen MT Condensed Extra Bold"
                 id="path3978"
                 inkscape:connector-curvature="0" />
              <path
                 d="m 986.53407,392.62503 0,-8.22672 2.08052,0 c -2.21348,3.25948 -4.53456,5.79656 -6.96324,7.61123 -2.42875,1.81468 -5.34653,2.72202 -8.75336,2.72202 -6.5681,0 -11.71666,-3.20386 -15.44569,-9.61157 -3.72905,-6.4077 -5.59357,-14.953 -5.59357,-25.63591 0,-10.25519 1.89341,-18.52381 5.68026,-24.80587 3.78682,-6.28195 8.90648,-9.42296 15.359,-9.42303 3.45595,7e-5 6.38023,0.86045 8.77286,2.58115 2.39257,1.72083 4.66091,4.14738 6.80504,7.27965 l -2.07619,0 0,-7.82362 22.838,0 0,65.33267 z m 0,-33.00659 c -4e-5,-9.45476 -2.02999,-14.18216 -6.08986,-14.18221 -4.10327,5e-5 -6.1549,4.72745 -6.15487,14.18221 -3e-5,9.86516 2.14262,14.79772 6.42794,14.7977 3.87782,2e-5 5.81675,-4.93254 5.81679,-14.7977 z"
                 style="font-variant:normal;font-weight:bold;font-stretch:normal;fill:#008080;stroke:#ffffff;stroke-width:5;stroke-miterlimit:0;stroke-dasharray:none;font-family:Tw Cen MT Condensed Extra Bold;-inkscape-font-specification:Tw Cen MT Condensed Extra Bold"
                 id="path3980"
                 inkscape:connector-curvature="0" />
              <path
                 d="m 1044.754,327.29236 0,10.47195 -2.1889,0 c 4.7158,-8.15731 9.9922,-12.23599 15.8293,-12.23606 0.8148,7e-5 2.3882,0.23268 4.7202,0.69784 l 0,21.8628 c -3.5861,-0.41028 -6.3153,-0.61544 -8.1877,-0.61548 -6.2359,4e-5 -9.3537,4.23043 -9.3537,12.69117 l 0,32.46045 -22.773,0 0,-65.33267 z"
                 style="font-variant:normal;font-weight:bold;font-stretch:normal;fill:#008080;stroke:#ffffff;stroke-width:5;stroke-miterlimit:0;stroke-dasharray:none;font-family:Tw Cen MT Condensed Extra Bold;-inkscape-font-specification:Tw Cen MT Condensed Extra Bold"
                 id="path3982"
                 inkscape:connector-curvature="0" />
              <path
                 d="m 1074.3494,310.6352 22.838,0 0,16.65716 7.6849,0 0,19.23181 -7.8192,0 0,46.10086 -22.7037,0 0,-46.23956 -7.4812,0 0,-19.09311 7.4812,0 z"
                 style="font-variant:normal;font-weight:bold;font-stretch:normal;fill:#008080;stroke:#ffffff;stroke-width:5;stroke-miterlimit:0;stroke-dasharray:none;font-family:Tw Cen MT Condensed Extra Bold;-inkscape-font-specification:Tw Cen MT Condensed Extra Bold"
                 id="path3984"
                 inkscape:connector-curvature="0" />
            </g>
          </g>
          <g
             transform="matrix(0.17891126,0,0,0.17891126,712.96245,21.843647)"
             id="g3986">
            <path
               inkscape:connector-curvature="0"
               id="path3988"
               d="m -890.25994,134.65318 61.66575,0.94871 10.91009,-53.601767 15.17927,0.94871 -11.8588,53.127407 18.49972,0 23.24325,-113.844447 -16.60232,0.47435 -10.91009,48.38389 -15.65362,0.47436 11.38445,-49.3326 -18.49973,0.47435 -22.76889,105.306127 -41.74296,-0.94871 z"
               style="fill:#ff0000;stroke:none" />
            <path
               sodipodi:nodetypes="cccssccsscccccscscc"
               inkscape:connector-curvature="0"
               id="path3990"
               d="m -767.65748,28.248733 -22.98856,107.353157 18.49973,0 c 0,0 17.9019,-91.069067 19.44843,-96.293437 1.53517,-5.18599 8.00876,-3.57986 6.9821,1.37159 -0.87209,4.20597 -19.31525,94.447497 -19.31525,94.447497 l 15.65361,0 c 0,0 19.89939,-90.134737 20.45549,-93.082807 0.9487,-5.02942 8.2649,-5.41616 7.23173,1.62765 -1.12064,7.64014 -17.72583,91.929507 -17.72583,91.929507 l 18.02537,0.47435 21.34584,-105.306117 43.64037,0 3.32047,-8.06399 c 0,0 -60.74222,-0.33945 -68.92672,-0.42107 -10.72686,-0.10697 -14.08487,6.58761 -14.08487,6.58761 0,0 1.48875,-6.5583 -15.00629,-6.29975 -14.35473,0.225 -15.46397,-0.19187 -15.46397,-0.19187 z"
               style="fill:#ff0000;stroke:none" />
            <path
               inkscape:connector-curvature="0"
               id="path3992"
               d="m -743.93615,-33.737587 c -21.85055,0 -46.01819,20.68352 -64.53125,51.875 l 4.34375,0 c 15.27691,-24.8965699 34.20747,-41 51.40625,-41 17.19732,0 28.81889,16.1070201 32.78125,41 l 15.5625,0 c -3.48809,-31.19321 -17.71123,-51.875 -39.5625,-51.875 z M -837.9049,138.76241 c 3.27358,31.8006 17.5477,52.96876 39.65625,52.96876 22.10843,0 46.59318,-21.16845 65.1875,-52.96876 l -13.0625,0 c -15.58888,26.75366 -35.39752,44.28126 -53.34375,44.28126 -17.94729,0 -29.80545,-17.52492 -33.25,-44.28126 l -5.1875,0 z"
               style="fill:#ff0000;stroke:none" />
          </g>
          <g
             transform="matrix(0.13792685,0,-0.04531834,0.23207403,524.46849,-45.22349)"
             style="font-size:142.03018188px;font-style:normal;font-weight:normal;line-height:125%;letter-spacing:0px;word-spacing:0px;fill:#008080;fill-opacity:1;stroke:none;font-family:Sans"
             id="g3994">
            <path
               d="m 647.43096,299.0753 23.65725,0 0,33.65675 15.23981,0 0,-33.65675 23.65291,0 0,93.54973 -23.65291,0 0,-37.73977 -15.23981,0 0,37.73977 -23.65725,0 z"
               style="font-variant:normal;font-weight:bold;font-stretch:normal;fill:#008080;stroke:none;font-family:Tw Cen MT Condensed Extra Bold;-inkscape-font-specification:Tw Cen MT Condensed Extra Bold"
               id="path3996"
               inkscape:connector-curvature="0" />
            <path
               d="m 755.52265,370.74489 19.54389,0 c -3.36356,15.90154 -11.80555,23.8523 -25.326,23.8523 -8.4637,0 -15.12858,-3.17207 -19.99467,-9.51621 -4.86611,-6.34413 -7.29916,-14.96744 -7.29916,-25.86997 0,-10.17717 2.43377,-18.40388 7.30133,-24.68017 4.86753,-6.27617 11.39588,-9.41429 19.58506,-9.41436 4.94698,7e-5 9.68161,1.52867 14.20389,4.58582 4.52219,3.05727 7.79684,7.05793 9.82396,12.002 2.027,4.94417 3.1619,13.10153 3.40468,24.47212 l -32.97625,0 c 0.23115,7.44077 2.30589,11.16114 6.22423,11.16112 1.25695,2e-5 2.4034,-0.48255 3.43936,-1.44769 1.03589,-0.96512 1.72578,-2.6801 2.06968,-5.14496 z m -11.46453,-18.08752 11.29549,0 c -0.13007,-3.24788 -0.64875,-5.751 -1.55606,-7.50938 -0.90737,-1.75828 -2.21347,-2.63744 -3.91831,-2.63749 -2.0112,5e-5 -3.48418,0.84093 -4.41894,2.52263 -0.93481,1.6818 -1.40221,4.22321 -1.40218,7.62424 z"
               style="font-variant:normal;font-weight:bold;font-stretch:normal;fill:#008080;stroke:none;font-family:Tw Cen MT Condensed Extra Bold;-inkscape-font-specification:Tw Cen MT Condensed Extra Bold"
               id="path3998"
               inkscape:connector-curvature="0" />
            <path
               d="m 780.54524,327.29236 22.19222,0 5.26631,17.25098 c 1.72796,5.72725 3.1482,10.99356 4.26074,15.79895 l -2.16288,0 c 0.91598,-4.57711 1.70917,-7.9854 2.3796,-10.22489 l 6.90039,-22.82504 22.48696,0 -27.02076,91.10512 -22.4046,0 8.023,-27.97867 z"
               style="font-variant:normal;font-weight:bold;font-stretch:normal;fill:#008080;stroke:none;font-family:Tw Cen MT Condensed Extra Bold;-inkscape-font-specification:Tw Cen MT Condensed Extra Bold"
               id="path4000"
               inkscape:connector-curvature="0" />
            <path
               d="m 858.05329,299.0753 28.69384,0 c 3.89514,20.67525 6.4091,37.51589 7.54188,50.52197 l 0.68918,-12.90356 c 0.90439,-5.18968 1.88686,-10.55424 2.9474,-16.09369 l 4.23472,-21.52472 29.23131,0 10.49363,93.54973 -23.3365,0 -4.70285,-62.41994 -10.85338,62.41994 -16.46211,0 -11.42119,-62.55864 -4.54681,62.55864 -22.43494,0 z"
               style="font-variant:normal;font-weight:bold;font-stretch:normal;fill:#008080;stroke:none;font-family:Tw Cen MT Condensed Extra Bold;-inkscape-font-specification:Tw Cen MT Condensed Extra Bold"
               id="path4002"
               inkscape:connector-curvature="0" />
            <path
               d="m 986.53407,392.62503 0,-8.22672 2.08052,0 c -2.21348,3.25948 -4.53456,5.79656 -6.96324,7.61123 -2.42875,1.81468 -5.34653,2.72202 -8.75336,2.72202 -6.5681,0 -11.71666,-3.20386 -15.44569,-9.61157 -3.72905,-6.4077 -5.59357,-14.953 -5.59357,-25.63591 0,-10.25519 1.89341,-18.52381 5.68026,-24.80587 3.78682,-6.28195 8.90648,-9.42296 15.359,-9.42303 3.45595,7e-5 6.38023,0.86045 8.77286,2.58115 2.39257,1.72083 4.66091,4.14738 6.80504,7.27965 l -2.07619,0 0,-7.82362 22.838,0 0,65.33267 z m 0,-33.00659 c -4e-5,-9.45476 -2.02999,-14.18216 -6.08986,-14.18221 -4.10327,5e-5 -6.1549,4.72745 -6.15487,14.18221 -3e-5,9.86516 2.14262,14.79772 6.42794,14.7977 3.87782,2e-5 5.81675,-4.93254 5.81679,-14.7977 z"
               style="font-variant:normal;font-weight:bold;font-stretch:normal;fill:#008080;stroke:none;font-family:Tw Cen MT Condensed Extra Bold;-inkscape-font-specification:Tw Cen MT Condensed Extra Bold"
               id="path4004"
               inkscape:connector-curvature="0" />
            <path
               d="m 1044.754,327.29236 0,10.47195 -2.1889,0 c 4.7158,-8.15731 9.9922,-12.23599 15.8293,-12.23606 0.8148,7e-5 2.3882,0.23268 4.7202,0.69784 l 0,21.8628 c -3.5861,-0.41028 -6.3153,-0.61544 -8.1877,-0.61548 -6.2359,4e-5 -9.3537,4.23043 -9.3537,12.69117 l 0,32.46045 -22.773,0 0,-65.33267 z"
               style="font-variant:normal;font-weight:bold;font-stretch:normal;fill:#008080;stroke:none;font-family:Tw Cen MT Condensed Extra Bold;-inkscape-font-specification:Tw Cen MT Condensed Extra Bold"
               id="path4006"
               inkscape:connector-curvature="0" />
            <path
               d="m 1074.3494,310.6352 22.838,0 0,16.65716 7.6849,0 0,19.23181 -7.8192,0 0,46.10086 -22.7037,0 0,-46.23956 -7.4812,0 0,-19.09311 7.4812,0 z"
               style="font-variant:normal;font-weight:bold;font-stretch:normal;fill:#008080;stroke:none;font-family:Tw Cen MT Condensed Extra Bold;-inkscape-font-specification:Tw Cen MT Condensed Extra Bold"
               id="path4008"
               inkscape:connector-curvature="0" />
          </g>
        </g>
        <flowRoot
           transform="matrix(1.0490413,0,0,1.0629032,-19.300091,-9.3199312)"
           style="font-size:40px;font-style:normal;font-weight:normal;line-height:125%;letter-spacing:0px;word-spacing:0px;fill:#000000;fill-opacity:1;stroke:none;font-family:Sans"
           id="flowRoot4228"
           xml:space="preserve"><flowRegion
             id="flowRegion4230"><rect
               y="85.876907"
               x="392.79379"
               height="103.87935"
               width="273.49484"
               id="rect4232" /></flowRegion><flowPara
             style="font-size:8px;font-weight:bold"
             id="flowPara4234"><flowSpan
               id="flowSpan4256"
               style="fill:#ffffff">Ketentuan penggunaan kartu member:</flowSpan></flowPara><flowPara
             id="flowPara4240"
             style="font-size:8px;font-weight:normal;fill:#ffffff;-inkscape-font-specification:Sans">- Kartu ini merupakan kartu pelanggan HeyMart</flowPara><flowPara
             id="flowPara4242"
             style="font-size:8px;font-weight:normal;fill:#ffffff;-inkscape-font-specification:Sans">- Pengguna kartu ini berhak memperoleh diskon khusus stiap belanja</flowPara><flowPara
             id="flowPara4244"
             style="font-size:8px;font-weight:normal;fill:#ffffff;-inkscape-font-specification:Sans">  di HeyMart</flowPara><flowPara
             id="flowPara4246"
             style="font-size:8px;font-weight:normal;fill:#ffffff;-inkscape-font-specification:Sans">- Kartu ini tidak dapat dipindahtangankan</flowPara><flowPara
             id="flowPara4248"
             style="font-size:8px;font-weight:normal;fill:#ffffff;-inkscape-font-specification:Sans">- Kartu ini milik HeyMart, bila hilang/ditemukan harap dikembalikan ke </flowPara><flowPara
             id="flowPara4250"
             style="font-size:8px;font-weight:normal;fill:#ffffff;-inkscape-font-specification:Sans">  HeyMart</flowPara><flowPara
             id="flowPara4252"
             style="font-size:8px;font-weight:normal;fill:#ffffff;-inkscape-font-specification:Sans">- Tunjukan kartu ini sebelum melakukan pembayaran di kasir HeyMart</flowPara><flowPara
             id="flowPara4238"
             style="font-size:8px;fill:#ffffff" /></flowRoot>        <rect
           style="fill:#008080;fill-opacity:1;stroke:none"
           id="rect3217"
           width="290.55118"
           height="12.502165"
           x="40.748032"
           y="7.6416297" />
        <g
           id="g3219">
          <g
             transform="matrix(0.17891126,0,0,0.17891126,179.81675,-34.449842)"
             style="stroke:#ffffff;stroke-width:5;stroke-linecap:square;stroke-miterlimit:0;stroke-dasharray:none"
             id="g4632">
            <path
               inkscape:connector-curvature="0"
               id="path4634"
               d="m 163.30121,509.51577 61.66575,0.94871 10.91009,-53.60177 15.17927,0.94871 -11.8588,53.12741 18.49972,0 23.24325,-113.84446 -16.60232,0.47435 -10.91009,48.3839 -15.65362,0.47435 11.38445,-49.3326 -18.49973,0.47435 -22.76889,105.30613 -41.74296,-0.94871 z"
               style="fill:#ff0000;stroke:#ffffff;stroke-width:5;stroke-linecap:square;stroke-miterlimit:0;stroke-dasharray:none" />
            <path
               sodipodi:nodetypes="cccssccsscccccscscc"
               inkscape:connector-curvature="0"
               id="path4636"
               d="m 285.90367,403.11132 -22.98856,107.35316 18.49973,0 c 0,0 17.9019,-91.06907 19.44843,-96.29344 1.53517,-5.18599 8.00876,-3.57986 6.9821,1.37159 -0.87209,4.20597 -19.31525,94.4475 -19.31525,94.4475 l 15.65361,0 c 0,0 19.89939,-90.13474 20.45549,-93.08281 0.9487,-5.02942 8.2649,-5.41616 7.23173,1.62765 -1.12064,7.64014 -17.72583,91.92951 -17.72583,91.92951 l 18.02537,0.47435 21.34584,-105.30612 43.64037,0 3.32047,-8.06399 c 0,0 -60.74222,-0.33945 -68.92672,-0.42107 -10.72686,-0.10697 -14.08487,6.58761 -14.08487,6.58761 0,0 1.48875,-6.5583 -15.00629,-6.29975 -14.35473,0.225 -15.46397,-0.19187 -15.46397,-0.19187 z"
               style="fill:#ff0000;stroke:#ffffff;stroke-width:5;stroke-linecap:square;stroke-miterlimit:0;stroke-dasharray:none" />
            <path
               inkscape:connector-curvature="0"
               id="path4638"
               d="m 309.625,341.125 c -21.85055,0 -46.01819,20.68352 -64.53125,51.875 l 4.34375,0 c 15.27691,-24.89658 34.20747,-41 51.40625,-41 17.19732,0 28.81889,16.10702 32.78125,41 l 15.5625,0 c -3.48809,-31.19321 -17.71123,-51.875 -39.5625,-51.875 z m -93.96875,172.5 c 3.27358,31.80059 17.5477,52.96875 39.65625,52.96875 22.10843,0 46.59318,-21.16845 65.1875,-52.96875 l -13.0625,0 c -15.58888,26.75366 -35.39752,44.28125 -53.34375,44.28125 -17.94729,0 -29.80545,-17.52492 -33.25,-44.28125 l -5.1875,0 z"
               style="fill:#ff0000;stroke:#ffffff;stroke-width:5;stroke-linecap:square;stroke-miterlimit:0;stroke-dasharray:none" />
            <g
               id="g4640"
               style="font-size:142.03018188px;font-style:normal;font-weight:normal;line-height:125%;letter-spacing:0px;word-spacing:0px;fill:#008080;fill-opacity:1;stroke:#ffffff;stroke-width:5;stroke-miterlimit:0;stroke-dasharray:none;font-family:Sans"
               transform="matrix(0.77092325,0,-0.25330068,1.297146,0,0)">
              <path
                 inkscape:connector-curvature="0"
                 id="path4642"
                 style="font-variant:normal;font-weight:bold;font-stretch:normal;fill:#008080;stroke:#ffffff;stroke-width:5;stroke-miterlimit:0;stroke-dasharray:none;font-family:Tw Cen MT Condensed Extra Bold;-inkscape-font-specification:Tw Cen MT Condensed Extra Bold"
                 d="m 647.43096,299.0753 23.65725,0 0,33.65675 15.23981,0 0,-33.65675 23.65291,0 0,93.54973 -23.65291,0 0,-37.73977 -15.23981,0 0,37.73977 -23.65725,0 z" />
              <path
                 inkscape:connector-curvature="0"
                 id="path4644"
                 style="font-variant:normal;font-weight:bold;font-stretch:normal;fill:#008080;stroke:#ffffff;stroke-width:5;stroke-miterlimit:0;stroke-dasharray:none;font-family:Tw Cen MT Condensed Extra Bold;-inkscape-font-specification:Tw Cen MT Condensed Extra Bold"
                 d="m 755.52265,370.74489 19.54389,0 c -3.36356,15.90154 -11.80555,23.8523 -25.326,23.8523 -8.4637,0 -15.12858,-3.17207 -19.99467,-9.51621 -4.86611,-6.34413 -7.29916,-14.96744 -7.29916,-25.86997 0,-10.17717 2.43377,-18.40388 7.30133,-24.68017 4.86753,-6.27617 11.39588,-9.41429 19.58506,-9.41436 4.94698,7e-5 9.68161,1.52867 14.20389,4.58582 4.52219,3.05727 7.79684,7.05793 9.82396,12.002 2.027,4.94417 3.1619,13.10153 3.40468,24.47212 l -32.97625,0 c 0.23115,7.44077 2.30589,11.16114 6.22423,11.16112 1.25695,2e-5 2.4034,-0.48255 3.43936,-1.44769 1.03589,-0.96512 1.72578,-2.6801 2.06968,-5.14496 z m -11.46453,-18.08752 11.29549,0 c -0.13007,-3.24788 -0.64875,-5.751 -1.55606,-7.50938 -0.90737,-1.75828 -2.21347,-2.63744 -3.91831,-2.63749 -2.0112,5e-5 -3.48418,0.84093 -4.41894,2.52263 -0.93481,1.6818 -1.40221,4.22321 -1.40218,7.62424 z" />
              <path
                 inkscape:connector-curvature="0"
                 id="path4646"
                 style="font-variant:normal;font-weight:bold;font-stretch:normal;fill:#008080;stroke:#ffffff;stroke-width:5;stroke-miterlimit:0;stroke-dasharray:none;font-family:Tw Cen MT Condensed Extra Bold;-inkscape-font-specification:Tw Cen MT Condensed Extra Bold"
                 d="m 780.54524,327.29236 22.19222,0 5.26631,17.25098 c 1.72796,5.72725 3.1482,10.99356 4.26074,15.79895 l -2.16288,0 c 0.91598,-4.57711 1.70917,-7.9854 2.3796,-10.22489 l 6.90039,-22.82504 22.48696,0 -27.02076,91.10512 -22.4046,0 8.023,-27.97867 z" />
              <path
                 inkscape:connector-curvature="0"
                 id="path4648"
                 style="font-variant:normal;font-weight:bold;font-stretch:normal;fill:#008080;stroke:#ffffff;stroke-width:5;stroke-miterlimit:0;stroke-dasharray:none;font-family:Tw Cen MT Condensed Extra Bold;-inkscape-font-specification:Tw Cen MT Condensed Extra Bold"
                 d="m 858.05329,299.0753 28.69384,0 c 3.89514,20.67525 6.4091,37.51589 7.54188,50.52197 l 0.68918,-12.90356 c 0.90439,-5.18968 1.88686,-10.55424 2.9474,-16.09369 l 4.23472,-21.52472 29.23131,0 10.49363,93.54973 -23.3365,0 -4.70285,-62.41994 -10.85338,62.41994 -16.46211,0 -11.42119,-62.55864 -4.54681,62.55864 -22.43494,0 z" />
              <path
                 inkscape:connector-curvature="0"
                 id="path4650"
                 style="font-variant:normal;font-weight:bold;font-stretch:normal;fill:#008080;stroke:#ffffff;stroke-width:5;stroke-miterlimit:0;stroke-dasharray:none;font-family:Tw Cen MT Condensed Extra Bold;-inkscape-font-specification:Tw Cen MT Condensed Extra Bold"
                 d="m 986.53407,392.62503 0,-8.22672 2.08052,0 c -2.21348,3.25948 -4.53456,5.79656 -6.96324,7.61123 -2.42875,1.81468 -5.34653,2.72202 -8.75336,2.72202 -6.5681,0 -11.71666,-3.20386 -15.44569,-9.61157 -3.72905,-6.4077 -5.59357,-14.953 -5.59357,-25.63591 0,-10.25519 1.89341,-18.52381 5.68026,-24.80587 3.78682,-6.28195 8.90648,-9.42296 15.359,-9.42303 3.45595,7e-5 6.38023,0.86045 8.77286,2.58115 2.39257,1.72083 4.66091,4.14738 6.80504,7.27965 l -2.07619,0 0,-7.82362 22.838,0 0,65.33267 z m 0,-33.00659 c -4e-5,-9.45476 -2.02999,-14.18216 -6.08986,-14.18221 -4.10327,5e-5 -6.1549,4.72745 -6.15487,14.18221 -3e-5,9.86516 2.14262,14.79772 6.42794,14.7977 3.87782,2e-5 5.81675,-4.93254 5.81679,-14.7977 z" />
              <path
                 inkscape:connector-curvature="0"
                 id="path4652"
                 style="font-variant:normal;font-weight:bold;font-stretch:normal;fill:#008080;stroke:#ffffff;stroke-width:5;stroke-miterlimit:0;stroke-dasharray:none;font-family:Tw Cen MT Condensed Extra Bold;-inkscape-font-specification:Tw Cen MT Condensed Extra Bold"
                 d="m 1044.754,327.29236 0,10.47195 -2.1889,0 c 4.7158,-8.15731 9.9922,-12.23599 15.8293,-12.23606 0.8148,7e-5 2.3882,0.23268 4.7202,0.69784 l 0,21.8628 c -3.5861,-0.41028 -6.3153,-0.61544 -8.1877,-0.61548 -6.2359,4e-5 -9.3537,4.23043 -9.3537,12.69117 l 0,32.46045 -22.773,0 0,-65.33267 z" />
              <path
                 inkscape:connector-curvature="0"
                 id="path4654"
                 style="font-variant:normal;font-weight:bold;font-stretch:normal;fill:#008080;stroke:#ffffff;stroke-width:5;stroke-miterlimit:0;stroke-dasharray:none;font-family:Tw Cen MT Condensed Extra Bold;-inkscape-font-specification:Tw Cen MT Condensed Extra Bold"
                 d="m 1074.3494,310.6352 22.838,0 0,16.65716 7.6849,0 0,19.23181 -7.8192,0 0,46.10086 -22.7037,0 0,-46.23956 -7.4812,0 0,-19.09311 7.4812,0 z" />
            </g>
          </g>
          <g
             id="g3824"
             transform="matrix(0.17891126,0,0,0.17891126,368.31071,32.617295)">
            <path
               style="fill:#ff0000;stroke:none"
               d="m -890.25994,134.65318 61.66575,0.94871 10.91009,-53.601767 15.17927,0.94871 -11.8588,53.127407 18.49972,0 23.24325,-113.844447 -16.60232,0.47435 -10.91009,48.38389 -15.65362,0.47436 11.38445,-49.3326 -18.49973,0.47435 -22.76889,105.306127 -41.74296,-0.94871 z"
               id="path2997"
               inkscape:connector-curvature="0" />
            <path
               style="fill:#ff0000;stroke:none"
               d="m -767.65748,28.248733 -22.98856,107.353157 18.49973,0 c 0,0 17.9019,-91.069067 19.44843,-96.293437 1.53517,-5.18599 8.00876,-3.57986 6.9821,1.37159 -0.87209,4.20597 -19.31525,94.447497 -19.31525,94.447497 l 15.65361,0 c 0,0 19.89939,-90.134737 20.45549,-93.082807 0.9487,-5.02942 8.2649,-5.41616 7.23173,1.62765 -1.12064,7.64014 -17.72583,91.929507 -17.72583,91.929507 l 18.02537,0.47435 21.34584,-105.306117 43.64037,0 3.32047,-8.06399 c 0,0 -60.74222,-0.33945 -68.92672,-0.42107 -10.72686,-0.10697 -14.08487,6.58761 -14.08487,6.58761 0,0 1.48875,-6.5583 -15.00629,-6.29975 -14.35473,0.225 -15.46397,-0.19187 -15.46397,-0.19187 z"
               id="path2999"
               inkscape:connector-curvature="0"
               sodipodi:nodetypes="cccssccsscccccscscc" />
            <path
               style="fill:#ff0000;stroke:none"
               d="m -743.93615,-33.737587 c -21.85055,0 -46.01819,20.68352 -64.53125,51.875 l 4.34375,0 c 15.27691,-24.8965699 34.20747,-41 51.40625,-41 17.19732,0 28.81889,16.1070201 32.78125,41 l 15.5625,0 c -3.48809,-31.19321 -17.71123,-51.875 -39.5625,-51.875 z M -837.9049,138.76241 c 3.27358,31.8006 17.5477,52.96876 39.65625,52.96876 22.10843,0 46.59318,-21.16845 65.1875,-52.96876 l -13.0625,0 c -15.58888,26.75366 -35.39752,44.28126 -53.34375,44.28126 -17.94729,0 -29.80545,-17.52492 -33.25,-44.28126 l -5.1875,0 z"
               id="path3769"
               inkscape:connector-curvature="0" />
          </g>
          <g
             id="text3777"
             style="font-size:142.03018188px;font-style:normal;font-weight:normal;line-height:125%;letter-spacing:0px;word-spacing:0px;fill:#008080;fill-opacity:1;stroke:none;font-family:Sans"
             transform="matrix(0.13792685,0,-0.04531834,0.23207403,179.81675,-34.449842)">
            <path
               inkscape:connector-curvature="0"
               id="path4356"
               style="font-variant:normal;font-weight:bold;font-stretch:normal;fill:#008080;stroke:none;font-family:Tw Cen MT Condensed Extra Bold;-inkscape-font-specification:Tw Cen MT Condensed Extra Bold"
               d="m 647.43096,299.0753 23.65725,0 0,33.65675 15.23981,0 0,-33.65675 23.65291,0 0,93.54973 -23.65291,0 0,-37.73977 -15.23981,0 0,37.73977 -23.65725,0 z" />
            <path
               inkscape:connector-curvature="0"
               id="path4358"
               style="font-variant:normal;font-weight:bold;font-stretch:normal;fill:#008080;stroke:none;font-family:Tw Cen MT Condensed Extra Bold;-inkscape-font-specification:Tw Cen MT Condensed Extra Bold"
               d="m 755.52265,370.74489 19.54389,0 c -3.36356,15.90154 -11.80555,23.8523 -25.326,23.8523 -8.4637,0 -15.12858,-3.17207 -19.99467,-9.51621 -4.86611,-6.34413 -7.29916,-14.96744 -7.29916,-25.86997 0,-10.17717 2.43377,-18.40388 7.30133,-24.68017 4.86753,-6.27617 11.39588,-9.41429 19.58506,-9.41436 4.94698,7e-5 9.68161,1.52867 14.20389,4.58582 4.52219,3.05727 7.79684,7.05793 9.82396,12.002 2.027,4.94417 3.1619,13.10153 3.40468,24.47212 l -32.97625,0 c 0.23115,7.44077 2.30589,11.16114 6.22423,11.16112 1.25695,2e-5 2.4034,-0.48255 3.43936,-1.44769 1.03589,-0.96512 1.72578,-2.6801 2.06968,-5.14496 z m -11.46453,-18.08752 11.29549,0 c -0.13007,-3.24788 -0.64875,-5.751 -1.55606,-7.50938 -0.90737,-1.75828 -2.21347,-2.63744 -3.91831,-2.63749 -2.0112,5e-5 -3.48418,0.84093 -4.41894,2.52263 -0.93481,1.6818 -1.40221,4.22321 -1.40218,7.62424 z" />
            <path
               inkscape:connector-curvature="0"
               id="path4360"
               style="font-variant:normal;font-weight:bold;font-stretch:normal;fill:#008080;stroke:none;font-family:Tw Cen MT Condensed Extra Bold;-inkscape-font-specification:Tw Cen MT Condensed Extra Bold"
               d="m 780.54524,327.29236 22.19222,0 5.26631,17.25098 c 1.72796,5.72725 3.1482,10.99356 4.26074,15.79895 l -2.16288,0 c 0.91598,-4.57711 1.70917,-7.9854 2.3796,-10.22489 l 6.90039,-22.82504 22.48696,0 -27.02076,91.10512 -22.4046,0 8.023,-27.97867 z" />
            <path
               inkscape:connector-curvature="0"
               id="path4362"
               style="font-variant:normal;font-weight:bold;font-stretch:normal;fill:#008080;stroke:none;font-family:Tw Cen MT Condensed Extra Bold;-inkscape-font-specification:Tw Cen MT Condensed Extra Bold"
               d="m 858.05329,299.0753 28.69384,0 c 3.89514,20.67525 6.4091,37.51589 7.54188,50.52197 l 0.68918,-12.90356 c 0.90439,-5.18968 1.88686,-10.55424 2.9474,-16.09369 l 4.23472,-21.52472 29.23131,0 10.49363,93.54973 -23.3365,0 -4.70285,-62.41994 -10.85338,62.41994 -16.46211,0 -11.42119,-62.55864 -4.54681,62.55864 -22.43494,0 z" />
            <path
               inkscape:connector-curvature="0"
               id="path4364"
               style="font-variant:normal;font-weight:bold;font-stretch:normal;fill:#008080;stroke:none;font-family:Tw Cen MT Condensed Extra Bold;-inkscape-font-specification:Tw Cen MT Condensed Extra Bold"
               d="m 986.53407,392.62503 0,-8.22672 2.08052,0 c -2.21348,3.25948 -4.53456,5.79656 -6.96324,7.61123 -2.42875,1.81468 -5.34653,2.72202 -8.75336,2.72202 -6.5681,0 -11.71666,-3.20386 -15.44569,-9.61157 -3.72905,-6.4077 -5.59357,-14.953 -5.59357,-25.63591 0,-10.25519 1.89341,-18.52381 5.68026,-24.80587 3.78682,-6.28195 8.90648,-9.42296 15.359,-9.42303 3.45595,7e-5 6.38023,0.86045 8.77286,2.58115 2.39257,1.72083 4.66091,4.14738 6.80504,7.27965 l -2.07619,0 0,-7.82362 22.838,0 0,65.33267 z m 0,-33.00659 c -4e-5,-9.45476 -2.02999,-14.18216 -6.08986,-14.18221 -4.10327,5e-5 -6.1549,4.72745 -6.15487,14.18221 -3e-5,9.86516 2.14262,14.79772 6.42794,14.7977 3.87782,2e-5 5.81675,-4.93254 5.81679,-14.7977 z" />
            <path
               inkscape:connector-curvature="0"
               id="path4366"
               style="font-variant:normal;font-weight:bold;font-stretch:normal;fill:#008080;stroke:none;font-family:Tw Cen MT Condensed Extra Bold;-inkscape-font-specification:Tw Cen MT Condensed Extra Bold"
               d="m 1044.754,327.29236 0,10.47195 -2.1889,0 c 4.7158,-8.15731 9.9922,-12.23599 15.8293,-12.23606 0.8148,7e-5 2.3882,0.23268 4.7202,0.69784 l 0,21.8628 c -3.5861,-0.41028 -6.3153,-0.61544 -8.1877,-0.61548 -6.2359,4e-5 -9.3537,4.23043 -9.3537,12.69117 l 0,32.46045 -22.773,0 0,-65.33267 z" />
            <path
               inkscape:connector-curvature="0"
               id="path4368"
               style="font-variant:normal;font-weight:bold;font-stretch:normal;fill:#008080;stroke:none;font-family:Tw Cen MT Condensed Extra Bold;-inkscape-font-specification:Tw Cen MT Condensed Extra Bold"
               d="m 1074.3494,310.6352 22.838,0 0,16.65716 7.6849,0 0,19.23181 -7.8192,0 0,46.10086 -22.7037,0 0,-46.23956 -7.4812,0 0,-19.09311 7.4812,0 z" />
          </g>
        </g>
        <rect
           y="7.6416297"
           x="377.36221"
           height="13.275813"
           width="290.55118"
           id="rect3285"
           style="fill:#008080;fill-opacity:1;stroke:none" />
      </g>
    </g>
  </g>
</svg>
